# xmcd
#
# Track frame offsets:
#	150
#	18662
#	37162
#
# Disc length: 740 seconds
#
# Revision: 14
# Processed by: cddbd v1.5.2PL0 Copyright (c) Steve Scherf et al.
# Submitted via: EasyCDDAExtractor 2011.0.0.0
#
DISCID=2202e203
DTITLE=Q-Tip - Breathe And Stop 
DYEAR=1999
DGENRE=Rap
TTITLE0=Breathe And Stop (Radio Mix)
TTITLE1=Breathe And Stop (Club Mix)
TTITLE2=Breathe And Stop (Instrumental)
EXTD=YEAR: 1999
EXTT0=
EXTT1=
EXTT2=
PLAYORDER=
